<svg viewBox="0 0 1280 223" xmlns="http://www.w3.org/2000/svg" xmlns:xlink="http://www.w3.org/1999/xlink">
<title>main</title>
<path fill="rgba(119, 132, 143, 1)" d="M 0 81 C 62 81 62 175 124 175 L 124 175 L 124 0 L 0 0 Z" stroke-width="0"></path> <path fill="rgba(119, 132, 143, 1)" d="M 123 175 C 237.5 175 237.5 67 352 67 L 352 67 L 352 0 L 123 0 Z" stroke-width="0"></path> <path fill="rgba(119, 132, 143, 1)" d="M 351 67 C 475.5 67 475.5 179 600 179 L 600 179 L 600 0 L 351 0 Z" stroke-width="0"></path><path fill="rgba(119, 132, 143, 1)" d="M 599 179 C 697.5 179 697.5 84 796 84 L 796 84 L 796 0 L 599 0 Z" stroke-width="0"></path><path fill="rgba(119, 132, 143, 1)" d="M 795 84 C 892 84 892 182 989 182 L 989 182 L 989 0 L 795 0 Z" stroke-width="0"></path><path fill="rgba(119, 132, 143, 1)" d="M 988 182 C 1073.5 182 1073.5 90 1159 90 L 1159 90 L 1159 0 L 988 0 Z" stroke-width="0"></path><path fill="rgba(119, 132, 143, 1)" d="M 1158 90 C 1219 90 1219 139 1280 139 L 1280 139 L 1280 0 L 1158 0 Z" stroke-width="0"></path></svg>